<svg xmlns="http://www.w3.org/2000/svg" fill="none" viewBox="0 0 58 58" height="58" width="58">
<g id="Group 2201">
<circle fill="#20CA78" r="29" cy="29" cx="29" id="Ellipse 15"></circle>
<g id="Group">
<g id="Group_2">
<g id="Group_3">
<g id="Group_4">
<path fill="white" d="M29.279 30.0355C29.7476 30.0355 30.1289 29.6269 30.1289 29.1248C30.1289 28.6227 29.7476 28.2141 29.279 28.2141C28.8105 28.2141 28.4292 28.6227 28.4292 29.1248C28.4292 29.6269 28.8105 30.0355 29.279 30.0355Z" id="Vector"></path>
<path fill="white" d="M25.0296 29.4287C24.0925 29.4287 23.3299 30.2459 23.3299 31.2501C23.3299 32.2543 24.0925 33.0716 25.0296 33.0716C25.9667 33.0716 26.7293 32.2543 26.7293 31.2501C26.7293 30.2459 25.9667 29.4287 25.0296 29.4287ZM25.0296 31.8573C24.7174 31.8573 24.4631 31.5847 24.4631 31.2501C24.4631 30.9156 24.7174 30.643 25.0296 30.643C25.3418 30.643 25.5962 30.9156 25.5962 31.2501C25.5962 31.5847 25.3418 31.8573 25.0296 31.8573Z" id="Vector_2"></path>
<path fill="white" d="M23.3303 13.6429H28.4362C28.749 13.6429 29.0028 13.3708 29.0028 13.0357C29.0028 12.7006 28.749 12.4286 28.4362 12.4286H23.3303V11.2143H31.2691V12.4286H30.7026C30.3898 12.4286 30.136 12.7006 30.136 13.0357V23.9643C30.136 25.6467 30.7705 26.6861 30.804 26.7396L34.7632 32.8432C34.8731 33.0126 35.0499 33.1037 35.2289 33.1037C35.3405 33.1037 35.4532 33.0684 35.5518 32.995C35.8085 32.8038 35.8719 32.4255 35.6935 32.1499L31.7405 26.056C31.736 26.0488 31.2691 25.2619 31.2691 23.9644V13.6429C31.894 13.6429 32.4023 13.0983 32.4023 12.4285V11.2143C32.4023 10.5446 31.8941 10 31.2691 10H23.3303C22.7048 10 22.1972 10.5446 22.1972 11.2143V12.4286C22.1973 13.0983 22.7048 13.6429 23.3303 13.6429Z" id="Vector_3"></path>
<path fill="white" d="M28.4294 23.9643C28.4294 23.2946 27.9212 22.75 27.2962 22.75C26.6707 22.75 26.1631 23.2946 26.1631 23.9643C26.1631 24.634 26.6707 25.1786 27.2962 25.1786C27.9212 25.1785 28.4294 24.634 28.4294 23.9643Z" id="Vector_4"></path>
<path fill="white" d="M39.194 23.3571C39.194 24.0268 39.7022 24.5714 40.3272 24.5714C40.9521 24.5714 41.4603 24.0269 41.4603 23.3571C41.4603 22.6874 40.9521 22.1428 40.3272 22.1428C39.7022 22.1429 39.194 22.6875 39.194 23.3571Z" id="Vector_5"></path>
<path fill="white" d="M36.3613 42.7857H14.2651C13.9518 42.7857 13.3977 42.7268 13.2057 42.3328C13.0266 41.9654 13.1728 41.3565 13.5779 40.7311L16.4696 36.7714C17.2396 36.9213 19.2232 37.2577 21.562 37.2577C23.0719 37.2577 24.7291 37.1174 26.3008 36.6961C30.635 35.5364 35.0469 36.6851 35.0911 36.6961C35.3937 36.775 35.7013 36.5789 35.7778 36.2541C35.8537 35.9287 35.669 35.5996 35.3659 35.5183C35.1744 35.4667 30.6418 34.2809 26.0254 35.5183C22.7512 36.3956 18.962 35.9554 17.2662 35.6791L23.8045 26.725C23.8311 26.6807 24.4634 25.6249 24.4634 23.9643V15.4643C24.4634 15.1292 24.2095 14.8572 23.8968 14.8572C23.5835 14.8572 23.3303 15.1292 23.3303 15.4643V23.9643C23.3303 25.2163 22.8793 26.0201 22.8827 26.0201L12.6668 40.0104C11.9869 41.0571 11.8181 42.1087 12.2011 42.895C12.4028 43.3079 12.9382 44 14.2651 44H36.3613C36.674 44 36.9279 43.728 36.9279 43.3929C36.9279 43.0578 36.674 42.7857 36.3613 42.7857Z" id="Vector_6"></path>
<path fill="white" d="M41.7436 20.3214C42.2121 20.3214 42.5934 19.9128 42.5934 19.4107C42.5934 18.9086 42.2121 18.5 41.7436 18.5C41.275 18.5 40.8937 18.9086 40.8937 19.4107C40.8937 19.9128 41.275 20.3214 41.7436 20.3214Z" id="Vector_7"></path>
<path fill="white" d="M44.8664 12.4282H36.9277C36.3022 12.4282 35.7945 12.9728 35.7945 13.6425V14.8568C35.7945 15.5265 36.3022 16.0711 36.9277 16.0711H42.0336C42.3463 16.0711 42.6001 15.7991 42.6001 15.464C42.6001 15.1289 42.3463 14.8569 42.0336 14.8569H36.9277V13.6425H44.8664V14.8568H44.2999C43.9872 14.8568 43.7333 15.1288 43.7333 15.464V39.7151C43.7327 39.7151 43.7316 39.7187 43.7299 39.7278C43.7266 39.7551 43.7237 39.783 43.7232 39.811C43.6926 41.4509 42.4235 42.7854 40.8938 42.7854C39.3334 42.7854 38.062 41.4248 38.0609 39.7503V28.3475C38.6263 28.4453 39.1771 28.4847 39.6813 28.4847C41.062 28.4847 42.0994 28.2133 42.1646 28.1957C42.4677 28.1143 42.6524 27.7846 42.5765 27.4592C42.5006 27.1344 42.1935 26.9365 41.8892 27.0178C41.87 27.0233 40.0167 27.5077 38.0609 27.1168V17.8925H36.9277V39.7533C36.9295 42.0944 38.709 43.9996 40.8937 43.9996C43.0212 43.9996 44.7894 42.1563 44.8551 39.8813C44.8608 39.8376 44.8665 39.7793 44.8665 39.7496V16.071C45.4914 16.071 45.9997 15.5264 45.9997 14.8567V13.6425C45.9996 12.9729 45.4914 12.4282 44.8664 12.4282Z" id="Vector_8"></path>
</g>
</g>
</g>
</g>
</g>
</svg>
