<svg xmlns="http://www.w3.org/2000/svg" fill="none" viewBox="0 0 20 20" height="20" width="20">
<g id="Group 2291">
<g id="Vector">
<path fill="#039856" d="M16.9464 9.80549L14.779 9.00618C13.0243 8.35909 11.641 6.97596 10.9941 5.22134L10.1946 3.05381C10.1646 2.97233 10.0869 2.91821 10 2.91821C9.91318 2.91821 9.83548 2.97233 9.80543 3.05381L9.00601 5.22122C8.35892 6.97596 6.97568 8.35909 5.22108 9.00618L3.05357 9.80549C2.97209 9.83554 2.91797 9.91324 2.91797 10.0001C2.91797 10.087 2.97209 10.1646 3.05357 10.1947L5.2212 10.9943C6.97581 11.6413 8.35892 13.0245 9.00601 14.7791L9.80543 16.9467C9.83548 17.0282 9.91318 17.0823 10 17.0823C10.0869 17.0823 10.1646 17.0282 10.1946 16.9467L10.9941 14.7791C11.6412 13.0245 13.0243 11.6412 14.7789 10.9943L16.9465 10.1947C17.028 10.1646 17.0821 10.087 17.0821 10.0001C17.0821 9.91324 17.0279 9.83554 16.9464 9.80549Z"></path>
<path fill="#039856" d="M16.9464 9.80549L14.779 9.00618C13.0243 8.35909 11.641 6.97596 10.9941 5.22134L10.1946 3.05381C10.1646 2.97233 10.0869 2.91821 10 2.91821C9.91318 2.91821 9.83548 2.97233 9.80543 3.05381L9.00601 5.22122C8.35892 6.97596 6.97568 8.35909 5.22108 9.00618L3.05357 9.80549C2.97209 9.83554 2.91797 9.91324 2.91797 10.0001C2.91797 10.087 2.97209 10.1646 3.05357 10.1947L5.2212 10.9943C6.97581 11.6413 8.35892 13.0245 9.00601 14.7791L9.80543 16.9467C9.83548 17.0282 9.91318 17.0823 10 17.0823C10.0869 17.0823 10.1646 17.0282 10.1946 16.9467L10.9941 14.7791C11.6412 13.0245 13.0243 11.6412 14.7789 10.9943L16.9465 10.1947C17.028 10.1646 17.0821 10.087 17.0821 10.0001C17.0821 9.91324 17.0279 9.83554 16.9464 9.80549Z"></path>
<path fill="#039856" d="M16.9464 9.80549L14.779 9.00618C13.0243 8.35909 11.641 6.97596 10.9941 5.22134L10.1946 3.05381C10.1646 2.97233 10.0869 2.91821 10 2.91821C9.91318 2.91821 9.83548 2.97233 9.80543 3.05381L9.00601 5.22122C8.35892 6.97596 6.97568 8.35909 5.22108 9.00618L3.05357 9.80549C2.97209 9.83554 2.91797 9.91324 2.91797 10.0001C2.91797 10.087 2.97209 10.1646 3.05357 10.1947L5.2212 10.9943C6.97581 11.6413 8.35892 13.0245 9.00601 14.7791L9.80543 16.9467C9.83548 17.0282 9.91318 17.0823 10 17.0823C10.0869 17.0823 10.1646 17.0282 10.1946 16.9467L10.9941 14.7791C11.6412 13.0245 13.0243 11.6412 14.7789 10.9943L16.9465 10.1947C17.028 10.1646 17.0821 10.087 17.0821 10.0001C17.0821 9.91324 17.0279 9.83554 16.9464 9.80549Z"></path>
</g>
<g id="Vector_2">
<path fill="#039856" d="M15.307 14.4853L14.2243 12.4447C13.3477 10.7927 13.2386 8.83958 13.926 7.10041L14.7751 4.95182C14.807 4.87105 14.7851 4.77892 14.7204 4.72102C14.6556 4.66312 14.5617 4.65166 14.4849 4.69237L12.4442 5.77505C10.7921 6.65168 8.83906 6.76057 7.09981 6.07327L4.95131 5.22418C4.87054 5.19226 4.77841 5.2141 4.72051 5.27885C4.66261 5.34359 4.65116 5.43758 4.69186 5.5143L5.77462 7.55527C6.65114 9.20726 6.76011 11.1602 6.07279 12.8995L5.22369 15.0482C5.19178 15.129 5.21361 15.2211 5.27836 15.279C5.3431 15.3369 5.43709 15.3483 5.51381 15.3076L7.55469 14.2248C9.20669 13.3482 11.1598 13.2392 12.8989 13.9266L15.0477 14.7755C15.1284 14.8075 15.2206 14.7856 15.2785 14.7209C15.3364 14.6561 15.3477 14.5621 15.307 14.4853Z"></path>
<path fill="#039856" d="M15.307 14.4853L14.2243 12.4447C13.3477 10.7927 13.2386 8.83958 13.926 7.10041L14.7751 4.95182C14.807 4.87105 14.7851 4.77892 14.7204 4.72102C14.6556 4.66312 14.5617 4.65166 14.4849 4.69237L12.4442 5.77505C10.7921 6.65168 8.83906 6.76057 7.09981 6.07327L4.95131 5.22418C4.87054 5.19226 4.77841 5.2141 4.72051 5.27885C4.66261 5.34359 4.65116 5.43758 4.69186 5.5143L5.77462 7.55527C6.65114 9.20726 6.76011 11.1602 6.07279 12.8995L5.22369 15.0482C5.19178 15.129 5.21361 15.2211 5.27836 15.279C5.3431 15.3369 5.43709 15.3483 5.51381 15.3076L7.55469 14.2248C9.20669 13.3482 11.1598 13.2392 12.8989 13.9266L15.0477 14.7755C15.1284 14.8075 15.2206 14.7856 15.2785 14.7209C15.3364 14.6561 15.3477 14.5621 15.307 14.4853Z"></path>
<path fill="#039856" d="M15.307 14.4853L14.2243 12.4447C13.3477 10.7927 13.2386 8.83958 13.926 7.10041L14.7751 4.95182C14.807 4.87105 14.7851 4.77892 14.7204 4.72102C14.6556 4.66312 14.5617 4.65166 14.4849 4.69237L12.4442 5.77505C10.7921 6.65168 8.83906 6.76057 7.09981 6.07327L4.95131 5.22418C4.87054 5.19226 4.77841 5.2141 4.72051 5.27885C4.66261 5.34359 4.65116 5.43758 4.69186 5.5143L5.77462 7.55527C6.65114 9.20726 6.76011 11.1602 6.07279 12.8995L5.22369 15.0482C5.19178 15.129 5.21361 15.2211 5.27836 15.279C5.3431 15.3369 5.43709 15.3483 5.51381 15.3076L7.55469 14.2248C9.20669 13.3482 11.1598 13.2392 12.8989 13.9266L15.0477 14.7755C15.1284 14.8075 15.2206 14.7856 15.2785 14.7209C15.3364 14.6561 15.3477 14.5621 15.307 14.4853Z"></path>
</g>
</g>
</svg>
