<svg width="168" height="217" viewBox="0 0 168 217" fill="none" xmlns="http://www.w3.org/2000/svg">
<g id="Mask group">
<mask id="mask0_483_306" style="mask-type:alpha" maskUnits="userSpaceOnUse" x="0" y="-2" width="170" height="219">
<g id="Group 2221">
<g id="Group">
<path id="Vector" d="M94.2042 13.3317L39.2529 78.2933L89.2107 128.251L154.172 73.2763L94.2042 13.3317Z" stroke="#039856" stroke-width="2" stroke-miterlimit="10"/>
<path id="Vector_2" d="M39.2533 128.251C53.0559 142.053 75.4321 142.053 89.2111 128.251L39.2533 78.293C25.4507 92.0955 25.4507 114.472 39.2533 128.251Z" stroke="#039856" stroke-width="2" stroke-miterlimit="10"/>
<path id="Vector_3" d="M155.845 74.9485L92.5557 11.6592L100.87 0L167.504 66.634L155.845 74.9485Z" stroke="#039856" stroke-width="2" stroke-miterlimit="10"/>
<path id="Vector_4" d="M45.7289 141.394L37.3908 149.732C35.5536 151.569 32.5622 151.569 30.725 149.732L17.3935 136.4C15.5563 134.563 15.5563 131.572 17.3935 129.735L25.7316 121.397" stroke="#039856" stroke-width="2" stroke-miterlimit="10"/>
</g>
<path id="Vector_5" d="M83.4386 161.321C71.5204 161.321 47.8251 165.537 43.397 165.537C31.2903 165.537 20.9737 160.261 16.946 149.544C7.50087 154.113 1 163.77 1 174.958C1 190.575 13.6484 203.223 29.2647 203.223C41.1829 203.223 64.8782 198.512 69.3063 198.512C81.413 198.512 91.7296 204.283 95.7573 215C105.202 210.431 111.703 200.773 111.703 189.585C111.703 173.969 99.0548 161.321 83.4386 161.321Z" stroke="#039856" stroke-width="2" stroke-miterlimit="10"/>
</g>
</mask>
<g mask="url(#mask0_483_306)">
<rect id="Rectangle 608" x="154.259" y="73.7913" width="153.259" height="177.856" transform="rotate(90 154.259 73.7913)" fill="#039856"/>
</g>
</g>
</svg>
