<svg xmlns="http://www.w3.org/2000/svg" fill="none" viewBox="0 0 58 58" height="58" width="58">
<g id="Group 2200">
<circle fill="#1FC4D1" r="29" cy="29" cx="29" id="Ellipse 15"></circle>
<g id="Group">
<g id="Group_2">
<g id="Group_3">
<path fill="white" d="M18.7999 39.4668C18.945 39.4668 19.09 39.4113 19.2005 39.3008C19.4221 39.0792 19.4221 38.721 19.2005 38.4995L14.0683 33.37C14.0303 33.3366 13.1333 32.5364 13.1333 30.9668V22.4668C13.1333 21.8418 13.6416 21.3335 14.2666 21.3335C14.8911 21.3335 15.4 21.8418 15.4 22.4668V26.9531C15.4 27.2659 15.6533 27.5192 15.9666 27.5192C16.28 27.5192 16.5333 27.2659 16.5333 26.9531V22.4668C16.5333 21.2167 15.5167 20.2002 14.2666 20.2002C13.0165 20.2002 12 21.2168 12 22.4668V30.9668C12 33.0827 13.2801 34.1872 13.2994 34.2008L18.3993 39.3008C18.5098 39.4112 18.6549 39.4668 18.7999 39.4668Z" id="Vector"></path>
<path fill="white" d="M22.7666 23.6001H21.0666C20.7533 23.6001 20.5 23.854 20.5 24.1667V25.8667C20.5 25.9461 20.5147 27.8161 21.7994 29.1007C23.084 30.3853 24.954 30.4001 25.0333 30.4001H26.7333C27.0467 30.4001 27.3 30.1462 27.3 29.8334V28.1334C27.3 28.0541 27.2852 26.1841 26.0006 24.8995C24.716 23.6148 22.846 23.6001 22.7666 23.6001ZM26.1666 29.2667H25.0333C25.0191 29.2667 23.5565 29.2554 22.6006 28.2995C21.6537 27.3526 21.6333 25.8798 21.6333 25.8667V24.7334H22.7666C22.7808 24.7334 24.2428 24.7441 25.1993 25.7007C26.1462 26.6475 26.1666 28.1203 26.1666 28.1334V29.2667Z" id="Vector_2"></path>
<path fill="white" d="M25.0335 40.6001H24.4668V36.0667C24.4668 33.9814 23.1924 32.8526 23.1675 32.8328L19.2008 28.8661C18.7747 28.4394 18.2256 28.1913 17.6561 28.168C17.0549 28.1459 16.4945 28.3675 16.0644 28.7976C15.6337 29.2277 15.4105 29.7932 15.4342 30.3888C15.458 30.9589 15.7062 31.508 16.133 31.9341L18.9663 34.7674C19.1879 34.989 19.546 34.989 19.7675 34.7674C19.9891 34.5458 19.9891 34.1877 19.7675 33.9662L16.9342 31.1323C16.7092 30.9079 16.5789 30.6274 16.5676 30.3429C16.5557 30.063 16.6594 29.8057 16.8657 29.5989C17.0725 29.3927 17.3229 29.2884 17.6097 29.3008C17.8942 29.3122 18.1752 29.4425 18.3996 29.6675L22.3928 33.6591C22.4308 33.6931 23.3335 34.5176 23.3335 36.0668V40.6001H15.9668C15.6534 40.6001 15.4002 40.854 15.4002 41.1668V43.4334C15.4002 43.7462 15.6534 44.0001 15.9668 44.0001C16.2802 44.0001 16.5334 43.7462 16.5334 43.4334V41.7334H24.4668V43.4334C24.4668 43.7462 24.72 44.0001 25.0334 44.0001C25.3468 44.0001 25.6 43.7462 25.6 43.4334V41.1668C25.6001 40.8539 25.3468 40.6001 25.0335 40.6001Z" id="Vector_3"></path>
<path fill="white" d="M33.5332 16.8001C33.5332 14.3271 31.7437 12.5088 31.6672 12.4329L29.4005 10.1661C29.1789 9.94462 28.8208 9.94462 28.5992 10.1661L26.3326 12.4328C26.2561 12.5087 24.4666 14.3271 24.4666 16.8C24.4666 19.2729 26.2561 21.0914 26.3326 21.1673L28.4338 23.2685V34.3677C28.4338 34.6811 28.6871 34.9344 29.0005 34.9344C29.3138 34.9344 29.5671 34.6811 29.5671 34.3677V23.2675L31.6672 21.1674C31.7436 21.0915 33.5332 19.2731 33.5332 16.8001ZM29.5671 21.6649V13.9668C29.5671 13.654 29.3138 13.4001 29.0005 13.4001C28.6871 13.4001 28.4338 13.654 28.4338 13.9668V21.666L27.1339 20.3661C27.1186 20.3508 25.5999 18.8089 25.5999 16.8001C25.5999 14.8055 27.1197 13.2488 27.1339 13.2341L28.9999 11.3681L30.8659 13.2341C30.8812 13.2494 32.3999 14.7913 32.3999 16.8001C32.3999 18.7947 30.8801 20.3514 30.8659 20.3661L29.5671 21.6649Z" id="Vector_4"></path>
<path fill="white" d="M43.7333 20.2002C42.4833 20.2002 41.4667 21.2168 41.4667 22.4668V26.9531C41.4667 27.2659 41.72 27.5192 42.0334 27.5192C42.3467 27.5192 42.6 27.2659 42.6 26.9531V22.4668C42.6 21.8418 43.1083 21.3335 43.7333 21.3335C44.3578 21.3335 44.8667 21.8418 44.8667 22.4668V30.9668C44.8667 32.5364 43.9697 33.3366 43.8994 33.3995L38.7995 38.4995C38.5779 38.721 38.5779 39.0792 38.7995 39.3008C38.91 39.4113 39.055 39.4668 39.2001 39.4668C39.3452 39.4668 39.4902 39.4113 39.6007 39.3008L44.665 34.233C44.7199 34.1872 46 33.0827 46 30.9668V22.4668C46 21.2168 44.9834 20.2002 43.7333 20.2002Z" id="Vector_5"></path>
<path fill="white" d="M42.0331 40.6H34.6665V36.0666C34.6665 34.5174 35.5692 33.6929 35.6337 33.6339L39.6004 29.6673C39.8247 29.4423 40.1058 29.312 40.3903 29.3007C40.6793 29.2882 40.9275 29.3924 41.1343 29.5988C41.3405 29.8056 41.4442 30.0629 41.4324 30.3428C41.421 30.6272 41.2907 30.9077 41.0657 31.1327L38.2324 33.9661C38.0108 34.1877 38.0108 34.5458 38.2324 34.7673C38.4539 34.9889 38.8121 34.9889 39.0336 34.7673L41.867 31.934C42.2937 31.5079 42.5413 30.9587 42.5657 30.3887C42.5895 29.7931 42.3662 29.2276 41.9356 28.7975C41.5055 28.3674 40.9456 28.1447 40.3438 28.1679C39.7743 28.1911 39.2252 28.4393 38.7991 28.866L34.8619 32.8055C34.8075 32.8525 33.533 33.9813 33.533 36.0666V40.6H32.9664C32.653 40.6 32.3998 40.8538 32.3998 41.1666V43.4332C32.3998 43.746 32.653 43.9999 32.9664 43.9999C33.2798 43.9999 33.533 43.746 33.533 43.4332V41.7333H41.4664V43.4332C41.4664 43.746 41.7196 43.9999 42.033 43.9999C42.3464 43.9999 42.5996 43.746 42.5996 43.4332V41.1666C42.5998 40.8538 42.3465 40.6 42.0331 40.6Z" id="Vector_6"></path>
<path fill="white" d="M36.2003 29.1007C37.4849 27.8161 37.4996 25.9461 37.4996 25.8667V24.1667C37.4996 23.854 37.2464 23.6001 36.933 23.6001H35.233C35.1537 23.6001 33.2837 23.6148 31.999 24.8995C30.7144 26.1841 30.6997 28.0541 30.6997 28.1334V29.8334C30.6997 30.1462 30.953 30.4001 31.2663 30.4001H32.9663C33.0457 30.4001 34.9157 30.3853 36.2003 29.1007ZM31.833 29.2667V28.1334C31.833 28.1186 31.8438 26.6566 32.8003 25.7007C33.7472 24.7538 35.2199 24.7334 35.233 24.7334H36.3664V25.8667C36.3664 25.8815 36.355 27.3429 35.3991 28.2995C34.459 29.2396 33.0004 29.2662 32.9653 29.2667H31.833Z" id="Vector_7"></path>
</g>
</g>
</g>
</g>
</svg>
