<svg xmlns="http://www.w3.org/2000/svg" fill="none" viewBox="0 0 58 58" height="58" width="58">
<g id="Group 2203">
<circle fill="#7AA2F1" r="29" cy="29" cx="29" id="Ellipse 15"></circle>
<path fill="white" d="M34.6304 25.1581H23.0942V23.6383H34.6304V25.1581ZM27.6077 41.8754L29.142 43.3951H16.6051C14.618 43.3951 13 41.0091 13 38.076C13 35.1429 14.618 32.7568 16.6051 32.7568H18.7681V18.6991C18.7681 15.5562 20.3861 13 22.3732 13H41.1195C43.1066 13 44.6525 15.386 44.6525 18.3191C44.6525 21.2523 43.1066 23.6383 41.1195 23.6383H38.9565V34.4863L37.5144 35.9742V18.6991C37.5019 17.2484 37.8183 15.8155 38.4373 14.5198H22.3732C21.3522 14.5198 20.2101 16.307 20.2101 18.6991V32.7568H35.4523L34.4285 34.0122C33.5785 35.1731 33.1399 36.6105 33.1884 38.076C33.1887 38.4277 33.2113 38.7791 33.2561 39.1277L31.768 37.652C31.8036 36.4819 32.0698 35.3324 32.5495 34.2766H16.6051C15.4529 34.2766 14.442 36.0517 14.442 38.076C14.442 40.1003 15.4529 41.8754 16.6051 41.8754H27.6077ZM38.9565 22.1185H41.1195C42.2717 22.1185 43.3546 20.3435 43.3546 18.3191C43.3546 16.2948 42.2717 14.5198 41.1195 14.5198H40.1433C39.3366 15.7447 38.921 17.2085 38.9565 18.6991V22.1185ZM23.0942 29.7173H34.6304V28.1976H23.0942V29.7173ZM34.6304 19.079H23.0942V20.5988H34.6304V19.079ZM43.9906 32.4818L33.8993 42.8936L29.8155 38.8465L28.8277 39.9529L33.918 45L45 33.5684L43.9906 32.4818Z" id="Vector"></path>
</g>
</svg>
