<svg xmlns="http://www.w3.org/2000/svg" fill="none" viewBox="0 0 58 58" height="58" width="58">
<g id="Group 2202">
<circle fill="#CF9627" r="29" cy="29" cx="29" id="Ellipse 15"></circle>
<g id="Group">
<path fill="white" d="M47 38.6513V34.5093L44.9551 33.9856C44.7949 33.4674 44.5882 32.9667 44.3381 32.4913L45.413 30.6766L42.4846 27.7477L40.6694 28.8231C40.1945 28.5725 39.6938 28.3657 39.1756 28.2056L38.6514 26.1612H34.5094L33.9857 28.2062C33.4675 28.3663 32.9668 28.573 32.4919 28.8236L30.6767 27.7482L30.5484 27.8777V26.1612H28.9032C28.4409 26.1612 27.9967 25.9649 27.6853 25.6221C27.3694 25.275 27.2208 24.8248 27.2657 24.3532C27.3453 23.5224 28.1059 22.8709 28.9975 22.8709H30.5484V17.9354C30.5484 17.0283 29.8103 16.2902 28.9032 16.2902H24.5161V15.8361C24.5161 14.3851 23.4292 13.1452 22.0418 13.013C21.2697 12.9374 20.5003 13.194 19.93 13.7128C19.3596 14.231 19.0323 14.9713 19.0323 15.7418V16.2902H14.6452C13.7381 16.2902 13 17.0283 13 17.9354V22.8709H14.5508C15.4425 22.8709 16.2031 23.5224 16.2826 24.3526C16.3276 24.8242 16.179 25.275 15.8631 25.6216C15.5516 25.9649 15.1075 26.1612 14.6452 26.1612H13V31.0967C13 32.0037 13.7381 32.7419 14.6452 32.7419H20.129V31.191C20.129 30.2994 20.78 29.5382 21.6108 29.4592C22.0835 29.4192 22.5337 29.5634 22.8803 29.8793C23.223 30.1902 23.4194 30.6339 23.4194 31.0967V32.7419H28.7064C28.5111 33.1428 28.3389 33.5562 28.2062 33.9862L26.1613 34.5099V38.6519L28.2062 39.1756C28.3664 39.6938 28.5731 40.1945 28.8232 40.6699L27.7483 42.4846L30.6767 45.4135L32.4919 44.3381C32.9668 44.5887 33.4675 44.7955 33.9857 44.9556L34.5099 47H38.6519L39.1756 44.9551C39.6938 44.7949 40.1945 44.5882 40.6694 44.3376L42.4846 45.413L45.413 42.484L44.3381 40.6694C44.5887 40.1945 44.7949 39.6938 44.9551 39.175L47 38.6513ZM23.6184 29.0677C23.0481 28.5489 22.2771 28.2906 21.5066 28.3679C20.1192 28.5001 19.0323 29.74 19.0323 31.191V31.6451H14.6452C14.343 31.6451 14.0968 31.3994 14.0968 31.0967V27.258H14.6452C15.4162 27.258 16.1554 26.9306 16.6747 26.3597C17.193 25.7894 17.4485 25.02 17.3745 24.2484C17.2418 22.861 16.0019 21.7741 14.5508 21.7741H14.0968V17.9354C14.0968 17.6327 14.343 17.387 14.6452 17.387H20.129V15.7418C20.129 15.279 20.3254 14.8353 20.6681 14.5238C21.0152 14.2085 21.4644 14.0621 21.9376 14.1038C22.7684 14.1833 23.4194 14.9445 23.4194 15.8361V17.387H28.9032C29.2054 17.387 29.4516 17.6327 29.4516 17.9354V21.7741H28.9975C27.5465 21.7741 26.3066 22.861 26.1739 24.249C26.1004 25.02 26.3554 25.79 26.8736 26.3603C27.393 26.9306 28.1322 27.258 28.9032 27.258H29.4516V28.9744L27.7489 30.6772L28.3219 31.6451H24.5161V31.0967C24.5161 30.3262 24.1887 29.5859 23.6184 29.0677ZM44.0689 38.2696L43.9855 38.5789C43.8122 39.2227 43.5583 39.8369 43.2309 40.4045L43.0708 40.6826L44.0349 42.3102L42.3102 44.0354L40.6826 43.0708L40.4051 43.2309C39.837 43.5583 39.2222 43.8122 38.5784 43.9855L38.2691 44.0689L37.8003 45.9032H35.3616L34.8922 44.0689L34.5829 43.9855C33.9391 43.8122 33.3249 43.5583 32.7562 43.2309L32.4787 43.0708L30.8511 44.0354L29.1264 42.3102L30.0905 40.6826L29.9304 40.4045C29.603 39.8369 29.3491 39.2227 29.1758 38.5789L29.0924 38.2696L27.2581 37.8002V35.3615L29.0924 34.8921L29.1758 34.5828C29.3491 33.939 29.603 33.3248 29.9304 32.7572L30.0905 32.4792L29.1264 30.8516L30.8511 29.1264L32.4787 30.091L32.7562 29.9308C33.3243 29.6034 33.9391 29.3495 34.5829 29.1763L34.8922 29.0929L35.361 27.258H37.7997L38.2691 29.0924L38.5784 29.1757C39.2222 29.349 39.8364 29.6029 40.4051 29.9303L40.6826 30.0904L42.3102 29.1258L44.0349 30.851L43.0708 32.4787L43.2309 32.7567C43.5583 33.3243 43.8122 33.9385 43.9855 34.5823L44.0689 34.8916L45.9032 35.361V37.7997L44.0689 38.2696Z" id="Vector"></path>
<path fill="white" d="M36.5808 32.1934C34.1619 32.1934 32.1937 34.1615 32.1937 36.5805C32.1937 38.9994 34.1619 40.9676 36.5808 40.9676C37.535 40.9676 38.4453 40.6621 39.2131 40.0847L38.5539 39.2084C37.9776 39.6416 37.2954 39.8708 36.5808 39.8708C34.7662 39.8708 33.2905 38.3951 33.2905 36.5805C33.2905 34.7659 34.7662 33.2901 36.5808 33.2901C38.3954 33.2901 39.8711 34.7659 39.8711 36.5805C39.8711 37.295 39.6425 37.9772 39.2087 38.5541L40.0856 39.2127C40.6625 38.4444 40.9679 37.5347 40.9679 36.5805C40.9679 34.1615 38.9998 32.1934 36.5808 32.1934Z" id="Vector_2"></path>
<path fill="white" d="M36.5806 29.9998C32.952 29.9998 30 32.9517 30 36.5804C30 40.2091 32.952 43.1611 36.5806 43.1611C40.2093 43.1611 43.1613 40.2091 43.1613 36.5804C43.1613 32.9517 40.2093 29.9998 36.5806 29.9998ZM36.5806 42.0643C33.5568 42.0643 31.0968 39.6042 31.0968 36.5804C31.0968 33.5566 33.5568 31.0965 36.5806 31.0965C39.6045 31.0965 42.0645 33.5566 42.0645 36.5804C42.0645 39.6042 39.6045 42.0643 36.5806 42.0643Z" id="Vector_3"></path>
<path fill="white" d="M42.0644 16.29H40.9677V17.3868H42.0644V16.29Z" id="Vector_4"></path>
<path fill="white" d="M42.0644 18.4839H40.9677V19.5807H42.0644V18.4839Z" id="Vector_5"></path>
<path fill="white" d="M43.1615 17.387H42.0647V18.4837H43.1615V17.387Z" id="Vector_6"></path>
<path fill="white" d="M40.9678 17.387H39.871V18.4837H40.9678V17.387Z" id="Vector_7"></path>
<path fill="white" d="M36.5808 20.6772H35.484V21.774H36.5808V20.6772Z" id="Vector_8"></path>
<path fill="white" d="M36.5808 22.8708H35.484V23.9676H36.5808V22.8708Z" id="Vector_9"></path>
<path fill="white" d="M37.6775 21.7742H36.5807V22.8709H37.6775V21.7742Z" id="Vector_10"></path>
<path fill="white" d="M35.4835 21.7742H34.3867V22.8709H35.4835V21.7742Z" id="Vector_11"></path>
<path fill="white" d="M23.4195 38.2256H22.3227V39.3224H23.4195V38.2256Z" id="Vector_12"></path>
<path fill="white" d="M23.4195 40.4194H22.3227V41.5162H23.4195V40.4194Z" id="Vector_13"></path>
<path fill="white" d="M24.5161 39.3225H23.4193V40.4193H24.5161V39.3225Z" id="Vector_14"></path>
<path fill="white" d="M22.3224 39.3225H21.2256V40.4193H22.3224V39.3225Z" id="Vector_15"></path>
<path fill="white" d="M17.9354 34.9353H16.8387V36.0321H17.9354V34.9353Z" id="Vector_16"></path>
<path fill="white" d="M17.9354 37.1289H16.8387V38.2257H17.9354V37.1289Z" id="Vector_17"></path>
<path fill="white" d="M19.032 36.0322H17.9353V37.129H19.032V36.0322Z" id="Vector_18"></path>
<path fill="white" d="M16.8384 36.0322H15.7416V37.129H16.8384V36.0322Z" id="Vector_19"></path>
</g>
</g>
</svg>
